<svg xmlns="http://www.w3.org/2000/svg" viewBox="0 0 240 180" fill="none">
  <rect x="62" y="38" width="116" height="104" rx="18" fill="#07111F"/>
  <rect x="84" y="62" width="72" height="56" rx="12" fill="#0B1F3A" stroke="#00D4FF" stroke-width="5"/>
  <path d="M96 90h16l8-12 12 24 8-12h16" stroke="#A3FF12" stroke-width="6" stroke-linecap="round" stroke-linejoin="round"/>
  <g fill="#00D4FF">
    <rect x="42" y="54" width="18" height="8" rx="4"/><rect x="42" y="78" width="18" height="8" rx="4"/><rect x="42" y="102" width="18" height="8" rx="4"/><rect x="42" y="126" width="18" height="8" rx="4"/>
    <rect x="180" y="54" width="18" height="8" rx="4"/><rect x="180" y="78" width="18" height="8" rx="4"/><rect x="180" y="102" width="18" height="8" rx="4"/><rect x="180" y="126" width="18" height="8" rx="4"/>
  </g>
  <circle cx="74" cy="50" r="5" fill="#A3FF12"/>
  <circle cx="166" cy="130" r="5" fill="#A3FF12"/>
</svg>
