<svg xmlns="http://www.w3.org/2000/svg" viewBox="0 0 920 210" fill="none">
  <g transform="translate(102 4)">
    <path d="M32 130V46h58c23 0 38 14 38 35 0 22-15 36-38 36H58v13H32Z" fill="#061B3D"/>
    <path d="M58 94h30c9 0 14-5 14-13 0-7-5-12-14-12H58v25Z" fill="#fff"/>
    <path d="M33 121V91c0-10 8-18 18-18h22" stroke="#061B3D" stroke-width="9" stroke-linecap="round" stroke-linejoin="round"/>
    <path d="M51 73h36" stroke="#fff" stroke-width="8" stroke-linecap="round"/>
    <circle cx="33" cy="121" r="7" fill="#fff" stroke="#061B3D" stroke-width="5"/>
    <circle cx="51" cy="73" r="7" fill="#fff" stroke="#061B3D" stroke-width="5"/>
    <circle cx="87" cy="73" r="9" fill="#12AEEF"/>
    <path d="M33 121v28M60 104v45M89 116v27" stroke="#061B3D" stroke-width="8" stroke-linecap="round"/>
    <circle cx="33" cy="151" r="8" fill="#fff" stroke="#061B3D" stroke-width="5"/>
    <circle cx="60" cy="151" r="8" fill="#fff" stroke="#061B3D" stroke-width="5"/>
    <circle cx="89" cy="145" r="8" fill="#fff" stroke="#061B3D" stroke-width="5"/>
    <text x="142" y="112" fill="#061B3D" font-family="Inter, Arial, sans-serif" font-size="76" font-weight="800" letter-spacing="-4">Projects</text>
    <text x="462" y="112" fill="#12AEEF" font-family="Inter, Arial, sans-serif" font-size="76" font-weight="800" letter-spacing="-4">for</text>
    <path d="M597 55v48c0 25 18 43 43 43s43-18 43-43V55" stroke="#FF6B00" stroke-width="24" stroke-linecap="round"/>
    <path d="M619 107c6 9 13 13 21 13s16-4 22-13" stroke="#fff" stroke-width="9" stroke-linecap="round"/>
    <circle cx="597" cy="42" r="13" fill="#FF6B00"/>
    <circle cx="683" cy="42" r="13" fill="#FF6B00"/>
  </g>
  <g transform="translate(0 18)">
    <path d="M150 156h48" stroke="#061B3D" stroke-width="4" stroke-linecap="round"/>
    <text x="260" y="164" text-anchor="middle" fill="#061B3D" font-family="Inter, Arial, sans-serif" font-size="18" font-weight="800" letter-spacing="6">LEARN</text>
    <circle cx="326" cy="156" r="6" fill="#12AEEF"/>
    <text x="408" y="164" text-anchor="middle" fill="#12AEEF" font-family="Inter, Arial, sans-serif" font-size="18" font-weight="800" letter-spacing="6">DESIGN</text>
    <circle cx="496" cy="156" r="6" fill="#FF6B00"/>
    <text x="564" y="164" text-anchor="middle" fill="#061B3D" font-family="Inter, Arial, sans-serif" font-size="18" font-weight="800" letter-spacing="6">BUILD</text>
    <circle cx="636" cy="156" r="6" fill="#FF6B00"/>
    <text x="744" y="164" text-anchor="middle" fill="#FF6B00" font-family="Inter, Arial, sans-serif" font-size="18" font-weight="800" letter-spacing="6">INNOVATE</text>
    <path d="M858 156h48" stroke="#FF6B00" stroke-width="4" stroke-linecap="round"/>
  </g>
</svg>
