<svg xmlns="http://www.w3.org/2000/svg" viewBox="0 0 875 190" fill="none">
  <path d="M32 130V46h58c23 0 38 14 38 35 0 22-15 36-38 36H58v13H32Z" fill="#FFFFFF"/>
  <path d="M58 94h30c9 0 14-5 14-13 0-7-5-12-14-12H58v25Z" fill="#071B3A"/>
  <path d="M33 121V91c0-10 8-18 18-18h22" stroke="#12AEEF" stroke-width="9" stroke-linecap="round" stroke-linejoin="round"/>
  <path d="M51 73h36" stroke="#071B3A" stroke-width="8" stroke-linecap="round"/>
  <circle cx="33" cy="121" r="7" fill="#071B3A" stroke="#12AEEF" stroke-width="5"/>
  <circle cx="51" cy="73" r="7" fill="#071B3A" stroke="#12AEEF" stroke-width="5"/>
  <circle cx="87" cy="73" r="9" fill="#12AEEF"/>
  <path d="M33 121v28M60 104v45M89 116v27" stroke="#FFFFFF" stroke-width="8" stroke-linecap="round"/>
  <circle cx="33" cy="151" r="8" fill="#071B3A" stroke="#FFFFFF" stroke-width="5"/>
  <circle cx="60" cy="151" r="8" fill="#071B3A" stroke="#FFFFFF" stroke-width="5"/>
  <circle cx="89" cy="145" r="8" fill="#071B3A" stroke="#FFFFFF" stroke-width="5"/>
  <text x="142" y="112" fill="#FFFFFF" font-family="Inter, Arial, sans-serif" font-size="76" font-weight="800" letter-spacing="-4">Projects</text>
  <text x="462" y="112" fill="#12AEEF" font-family="Inter, Arial, sans-serif" font-size="76" font-weight="800" letter-spacing="-4">for</text>
  <path d="M597 55v48c0 25 18 43 43 43s43-18 43-43V55" stroke="#FF7A1A" stroke-width="24" stroke-linecap="round"/>
  <path d="M619 107c6 9 13 13 21 13s16-4 22-13" stroke="#071B3A" stroke-width="9" stroke-linecap="round"/>
  <circle cx="597" cy="42" r="13" fill="#FF7A1A"/>
  <circle cx="683" cy="42" r="13" fill="#FF7A1A"/>
  <path d="M140 156h70" stroke="#FFFFFF" stroke-width="4" stroke-linecap="round"/>
  <text x="228" y="164" fill="#FFFFFF" font-family="Inter, Arial, sans-serif" font-size="20" font-weight="800" letter-spacing="8">LEARN</text>
  <circle cx="342" cy="156" r="6" fill="#12AEEF"/>
  <text x="364" y="164" fill="#12AEEF" font-family="Inter, Arial, sans-serif" font-size="20" font-weight="800" letter-spacing="8">DESIGN</text>
  <circle cx="502" cy="156" r="6" fill="#FF7A1A"/>
  <text x="524" y="164" fill="#FFFFFF" font-family="Inter, Arial, sans-serif" font-size="20" font-weight="800" letter-spacing="8">BUILD</text>
  <circle cx="620" cy="156" r="6" fill="#FF7A1A"/>
  <text x="642" y="164" fill="#FF7A1A" font-family="Inter, Arial, sans-serif" font-size="20" font-weight="800" letter-spacing="8">INNOVATE</text>
  <path d="M804 156h22" stroke="#FF7A1A" stroke-width="4" stroke-linecap="round"/>
</svg>
