<svg xmlns="http://www.w3.org/2000/svg" viewBox="0 0 720 140" fill="none">
  <path d="M28 112V28h58c23 0 38 14 38 35 0 22-15 36-38 36H54v13H28Z" fill="#FFFFFF"/>
  <path d="M54 76h30c9 0 14-5 14-13 0-7-5-12-14-12H54v25Z" fill="#071B3A"/>
  <path d="M29 103V73c0-10 8-18 18-18h22" stroke="#12AEEF" stroke-width="9" stroke-linecap="round" stroke-linejoin="round"/>
  <path d="M47 55h36" stroke="#071B3A" stroke-width="8" stroke-linecap="round"/>
  <circle cx="29" cy="103" r="7" fill="#071B3A" stroke="#12AEEF" stroke-width="5"/>
  <circle cx="47" cy="55" r="7" fill="#071B3A" stroke="#12AEEF" stroke-width="5"/>
  <circle cx="83" cy="55" r="9" fill="#12AEEF"/>
  <path d="M29 103v24M56 86v41M85 98v23" stroke="#FFFFFF" stroke-width="8" stroke-linecap="round"/>
  <circle cx="29" cy="129" r="8" fill="#071B3A" stroke="#FFFFFF" stroke-width="5"/>
  <circle cx="56" cy="129" r="8" fill="#071B3A" stroke="#FFFFFF" stroke-width="5"/>
  <circle cx="85" cy="123" r="8" fill="#071B3A" stroke="#FFFFFF" stroke-width="5"/>
  <text x="138" y="95" fill="#FFFFFF" font-family="Inter, Arial, sans-serif" font-size="76" font-weight="800" letter-spacing="-4">Projects</text>
  <text x="458" y="95" fill="#12AEEF" font-family="Inter, Arial, sans-serif" font-size="76" font-weight="800" letter-spacing="-4">for</text>
  <path d="M593 38v48c0 25 18 43 43 43s43-18 43-43V38" stroke="#FF7A1A" stroke-width="24" stroke-linecap="round"/>
  <path d="M615 90c6 9 13 13 21 13s16-4 22-13" stroke="#071B3A" stroke-width="9" stroke-linecap="round"/>
  <circle cx="593" cy="25" r="13" fill="#FF7A1A"/>
  <circle cx="679" cy="25" r="13" fill="#FF7A1A"/>
</svg>
